# xmcd CD database file
#
# Track frame offsets:
#	183
#	14550
#	28787
#	44448
#	57728
#	70623
#	85953
#	100002
#	113695
#	128845
#	143145
#	157608
#	170555
#	183303
#	196040
#	210025
#	223278
#	236088
#	248848
#	262743
#	277298
#	289050
#	302085
#
# Disc length: 4208 seconds
#
# Revision: 0
# Processed by: cddbd v1.5.1PL0 Copyright (c) Steve Scherf et al.
# Submitted via: CDex 1.51
#
DISCID=49106e17
DTITLE=Chick Webb - Rhythm Man
DYEAR=1992
DGENRE=Jazz
TTITLE0=Heebie Jeebies
TTITLE1=Blues In My Heart
TTITLE2=Soft and Sweet
TTITLE3=Sunny Side of the Street
TTITLE4=Darktown Strutters Ball
TTITLE5=If Dream Come True
TTITLE6=Let's Get Together
TTITLE7=I Can't Dance
TTITLE8=Imagination
TTITLE9=Why Should I Beg for Love?
TTITLE10=Stomping at the Savoy
TTITLE11=Blue Minor
TTITLE12=True
TTITLE13=Lonesome Moments
TTITLE14=If it ain't Love
TTITLE15=That Rhythm Man
TTITLE16=Sunny Side of the Street
TTITLE17=Lona
TTITLE18=Blue Minor
TTITLE19=It's Over Because We're Through
TTITLE20=Don't Be That Way
TTITLE21=What a Shuffle
TTITLE22=Blue Lou
EXTD=YEAR: 1992
EXTT0=
EXTT1=
EXTT2=
EXTT3=
EXTT4=
EXTT5=
EXTT6=
EXTT7=
EXTT8=
EXTT9=
EXTT10=
EXTT11=
EXTT12=
EXTT13=
EXTT14=
EXTT15=
EXTT16=
EXTT17=
EXTT18=
EXTT19=
EXTT20=
EXTT21=
EXTT22=
PLAYORDER=
